<svg width="37" height="33" viewBox="0 0 37 33" fill="none" xmlns="http://www.w3.org/2000/svg">
<ellipse cx="18.5" cy="16.5" rx="18.5" ry="16.5" fill="#EB5757"/>
<path d="M12.25 11.5H13.75H25.75" stroke="white" stroke-width="2" stroke-linecap="round" stroke-linejoin="round"/>
<path d="M16 11.5V10C16 9.60218 16.158 9.22064 16.4393 8.93934C16.7206 8.65804 17.1022 8.5 17.5 8.5H20.5C20.8978 8.5 21.2794 8.65804 21.5607 8.93934C21.842 9.22064 22 9.60218 22 10V11.5M24.25 11.5V22C24.25 22.3978 24.092 22.7794 23.8107 23.0607C23.5294 23.342 23.1478 23.5 22.75 23.5H15.25C14.8522 23.5 14.4706 23.342 14.1893 23.0607C13.908 22.7794 13.75 22.3978 13.75 22V11.5H24.25Z" stroke="white" stroke-width="2" stroke-linecap="round" stroke-linejoin="round"/>
</svg>
